# xmcd CD database file
#
# Track frame offsets:
#	150
#	12314
#	21184
#	32958
#	46079
#	55510
#	68657
#	80964
#	91053
#	102995
#	115943
#	128469
#	142121
#	154014
#	164005
#	173257
#	183360
#	193900
#	208092
#	222580
#	232270
#	243314
#	253409
#	265775
#
# Disc length: 3682 seconds
#
# Revision: 1
# Processed by: cddbd v1.5.2PL0 Copyright (c) Steve Scherf et al.
# Submitted via: CDex 1.51
#
DISCID=580e6018
DTITLE=Walter Wanderley - Brazilian Organ
DYEAR=1962
DGENRE=Jazz
TTITLE0=O Samba Brasileiro
TTITLE1=O Barquinho
TTITLE2=Murmurio
TTITLE3=Nossos Momentos
TTITLE4=Chora Coracao
TTITLE5=Chorou, Chorou
TTITLE6=Palhacada
TTITLE7=Agua De Beber
TTITLE8=Nao Sabemos
TTITLE9=Boato
TTITLE10=Poema Do Adeus
TTITLE11=Mulher De Trinta
TTITLE12=Labareda
TTITLE13=Voce E Eu
TTITLE14=Volto Ja
TTITLE15=Eu Nao Tenho Onde Morar
TTITLE16=Deixa Andar
TTITLE17=Eu E O Rio
TTITLE18=A Mesma Rosa Amarela
TTITLE19=Corcovado
TTITLE20=So Vou De Mulher
TTITLE21=Que Sabe Voce De Mim
TTITLE22=A NegaSe Vingou
TTITLE23=A Poema Da Vida
EXTD=YEAR: 1962
EXTT0=
EXTT1=
EXTT2=
EXTT3=
EXTT4=
EXTT5=
EXTT6=
EXTT7=
EXTT8=
EXTT9=
EXTT10=
EXTT11=
EXTT12=
EXTT13=
EXTT14=
EXTT15=
EXTT16=
EXTT17=
EXTT18=
EXTT19=
EXTT20=
EXTT21=
EXTT22=
EXTT23=
PLAYORDER=
